<svg xmlns="http://www.w3.org/2000/svg" viewBox="0 0 1600 900">
  <defs>
    <linearGradient id="sky" x1="0" y1="0" x2="0" y2="1">
      <stop offset="0" stop-color="#f8fbff"/>
      <stop offset="1" stop-color="#dbeaf7"/>
    </linearGradient>
    <linearGradient id="sea" x1="0" y1="0" x2="0" y2="1">
      <stop offset="0" stop-color="#9ec5dd"/>
      <stop offset="1" stop-color="#5f8fb0"/>
    </linearGradient>
    <filter id="paper" x="-10%" y="-10%" width="120%" height="120%">
      <feTurbulence type="fractalNoise" baseFrequency="0.9" numOctaves="2" stitchTiles="stitch"/>
      <feColorMatrix type="matrix" values="
        1 0 0 0 0
        0 1 0 0 0
        0 0 1 0 0
        0 0 0 0.08 0"/>
      <feComposite operator="in" in2="SourceGraphic"/>
    </filter>
    <filter id="soft" x="-10%" y="-10%" width="120%" height="120%">
      <feGaussianBlur stdDeviation="1.2"/>
    </filter>
  </defs>

  <rect width="1600" height="900" fill="url(#sky)"/>

  <!-- Vesuvio silhouette -->
  <path d="M190 420 C360 280 520 260 660 320 C760 365 820 420 900 455 C980 490 1100 502 1220 450 C1350 392 1480 390 1600 440 L1600 575 L0 575 L0 455 Z" fill="#bfc9cf" filter="url(#soft)" opacity="0.9"/>

  <!-- città (acquerello) -->
  <g opacity="0.88" filter="url(#soft)">
    <path d="M0 520 C220 498 400 510 560 532 C740 556 900 548 1120 520 C1340 488 1460 500 1600 525 L1600 610 L0 610 Z" fill="#eadbc4"/>
    <path d="M160 508 h110 v54 h-110z" fill="#d9b79a"/>
    <path d="M290 502 h140 v70 h-140z" fill="#d2a98c"/>
    <path d="M450 510 h120 v60 h-120z" fill="#cfa689"/>
    <path d="M590 506 h160 v72 h-160z" fill="#d7b095"/>
    <path d="M770 514 h120 v62 h-120z" fill="#caa184"/>
  </g>

  <!-- mare -->
  <rect y="610" width="1600" height="290" fill="url(#sea)"/>
  <path d="M0 660 C220 630 420 660 620 648 C860 634 1080 620 1600 660" fill="none" stroke="#cfe8f3" stroke-width="10" opacity="0.35"/>

  <!-- texture carta -->
  <rect width="1600" height="900" filter="url(#paper)" opacity="0.9"/>
</svg>
